<?xml version="1.0" encoding="utf-8"?>
<!-- Generator: Adobe Illustrator 25.4.1, SVG Export Plug-In . SVG Version: 6.00 Build 0)  -->
<svg version="1.1" xmlns="http://www.w3.org/2000/svg" xmlns:xlink="http://www.w3.org/1999/xlink" x="0px" y="0px" viewBox="0 0 51 22" style="enable-background:new 0 0 51 22;" xml:space="preserve">
<style type="text/css">
	.st0{fill:#010101;}
</style>
<g id="Layer_2_00000061455270310492894610000000991581401394991537_">
	<path id="outline-4" class="st0" d="M44.11,0L23.43,20.62V22h6.89L46.98,5.38l2.64,0.12L51,4.12V0H44.11z M50,3.71l-0.77,0.77
		l-2.2-0.1l-0.44-0.02l-0.31,0.31L29.91,21h-5.44L44.52,1H50V3.71z"/>
	<path id="outline-3" class="st0" d="M32.39,0L11.72,20.62V22h6.89L39.28,1.38V0H32.39z M18.2,21h-5.44L32.8,1h5.44L18.2,21z"/>
	<path id="outline-2" class="st0" d="M20.68,0L4.14,16.5H1.38L0,17.88V22h6.89L27.57,1.38V0H20.68z M6.48,21H1v-2.71l0.79-0.79h2.76
		l0.29-0.29L21.09,1h5.44L6.48,21z"/>
	<path id="outline-1" class="st0" d="M5.17,0C2.32,0,0,2.31,0,5.16s2.32,5.16,5.17,5.16c2.85,0,5.17-2.31,5.17-5.16S8.02,0,5.17,0z
		 M5.17,9.31C2.87,9.31,1,7.45,1,5.16C1,2.86,2.87,1,5.17,1s4.17,1.86,4.17,4.16C9.34,7.45,7.47,9.31,5.17,9.31z"/>
</g>
<g id="fill">
	<polygon id="fill-4" class="st0" points="51,0 44.11,0 23.43,20.62 23.43,22 30.32,22 46.99,5.38 49.62,5.5 51,4.12 51,0 	"/>
	<path id="fill-3" class="st0" d="M32.39,0L11.72,20.62V22h6.89L39.28,1.38V0H32.39z"/>
	<polygon id="fill-2" class="st0" points="20.68,0 4.14,16.5 1.38,16.5 0,17.88 0,22 6.89,22 27.57,1.38 27.57,0 	"/>
	<path id="fill-1" class="st0" d="M5.17,0C2.32,0,0,2.31,0,5.16s2.32,5.16,5.17,5.16S10.34,8,10.34,5.16S8.02,0,5.17,0L5.17,0z"/>
</g>
</svg>
