<?xml version="1.0" encoding="utf-8"?>
<!-- Generator: Adobe Illustrator 25.4.1, SVG Export Plug-In . SVG Version: 6.00 Build 0)  -->
<svg version="1.1" xmlns="http://www.w3.org/2000/svg" xmlns:xlink="http://www.w3.org/1999/xlink" x="0px" y="0px" width="45.5px"
	 height="16px" viewBox="0 0 45.5 16" style="enable-background:new 0 0 45.5 16;" xml:space="preserve">
<g id="fill">
	<path d="M6.5,0H0v8h0.14L6.5,1.46V0L6.5,0z"/>
	<path d="M26,0H14.48L0,14.59V16h11.35L26,1.24V0L26,0z"/>
	<path d="M45.5,0H33.98L19.5,14.59V16h11.35L45.5,1.24V0L45.5,0z"/>
</g>
<g id="outline">
	<path d="M44.33,1l-13.9,14H20.5l0,0L34.4,1H44.33 M45.5,0H33.98L19.5,14.59V16h11.35L45.5,1.24V0L45.5,0z"/>
	<path d="M24.83,1l-13.9,14H1l0,0L14.9,1H24.83 M26,0H14.48L0,14.59V16h11.35L26,1.24V0L26,0z"/>
	<path d="M5.5,1v0.05L1,5.68V1H5.5 M6.5,0H0v8h0.14L6.5,1.46V0L6.5,0z"/>
</g>
</svg>
