<svg version="1.1" xmlns="http://www.w3.org/2000/svg" xmlns:xlink="http://www.w3.org/1999/xlink" x="0px" y="0px" viewBox="0 0 16 16" style="enable-background:new 0 0 16 16;" xml:space="preserve">
<polygon class="bottom-left" points="6.4,6.4 9.6,6.4 14.4,6.4 16,8 14.4,9.6 9.6,9.6 9.6,14.4 8,16 6.4,14.4 6.4,9.6 6.4,6.4 "/>
<polygon class="bottom-right" points="9.6,9.6 6.4,9.6 1.6,9.6 0,8 1.6,6.4 6.4,6.4 6.4,1.6 8,0 9.6,1.6 9.6,6.4 9.6,9.6  "/>
<polygon class="top-right" points="9.6,6.4 9.6,9.6 9.6,14.4 8,16 6.4,14.4 6.4,9.6 1.6,9.6 0,8 1.6,6.4 6.4,6.4 9.6,6.4  "/>
<polygon class="top-left" points="6.4,9.6 6.4,6.4 6.4,1.6 8,0  9.6,1.6 9.6,6.4 14.4,6.4 16,8 14.4,9.6 9.6,9.6 6.4,9.6 "/>
</svg>
