<?xml version="1.0" encoding="utf-8"?>
<!-- Generator: Adobe Illustrator 25.4.1, SVG Export Plug-In . SVG Version: 6.00 Build 0)  -->
<svg version="1.1" id="Layer_1" xmlns="http://www.w3.org/2000/svg" xmlns:xlink="http://www.w3.org/1999/xlink" x="0px" y="0px"
	 width="25px" height="25px" viewBox="0 0 25 25" style="enable-background:new 0 0 25 25;" xml:space="preserve">
<style type="text/css">
	.st0{fill:none;stroke:#E4E5EA;stroke-miterlimit:1.5;}
	.st1{fill:none;stroke:#CFD2DB;stroke-miterlimit:1.5;stroke-dasharray:3.1617,1.571,9.880378e-03,0;}
	.st2{fill:none;stroke:#555861;stroke-width:2;stroke-linecap:round;stroke-linejoin:round;stroke-miterlimit:10;}
</style>
<path id="outer_ring" class="st0" d="M12.5,0.5c6.62,0,12,5.37,12,12c0,6.62-5.38,12-12,12c-6.62,0-12-5.38-12-12
	C0.5,5.87,5.88,0.5,12.5,0.5L12.5,0.5z"/>
<g id="inner_ring">
	<path class="st1" d="M12.5,4.19c4.58,0,8.31,3.72,8.31,8.31s-3.72,8.31-8.31,8.31c-4.59,0-8.31-3.72-8.31-8.31S7.91,4.19,12.5,4.19
		z"/>
</g>
<line class="st2" x1="12.5" y1="8.5" x2="12.5" y2="16.5"/>
<line class="st2" x1="16.5" y1="12.5" x2="8.5" y2="12.5"/>
</svg>
