<svg version="1.1" id="Layer_1" xmlns="http://www.w3.org/2000/svg" xmlns:xlink="http://www.w3.org/1999/xlink" x="0px" y="0px"
	 width="37px" height="64px" viewBox="0 0 37 64" style="enable-background:new 0 0 37 64;" xml:space="preserve">
<style type="text/css">
	.st0{fill-rule:evenodd;clip-rule:evenodd;fill:#010101;}
</style>
<path id="eye-open" class="st0" d="M30.925,11.035v18.758h-1.657V4.414h-6.073v25.379h-1.657V0h-6.075v29.793h-1.657V3.31H7.732
	v35.863H6.075v-19.31H0v25.654C0,55.718,8.289,64,18.5,64S37,55.718,37,45.517V11.035H30.925z M23.645,52.125H13.207L9.32,48.147
	l4.057-4.022h10.268l4.035,4L23.645,52.125z"/>
<path class="st0" d="M18.5,44.792c-1.841,0-3.336,1.494-3.336,3.333c0,1.84,1.495,3.333,3.336,3.333s3.336-1.494,3.336-3.333
	C21.836,46.286,20.341,44.792,18.5,44.792z"/>
<path id="eye-closed" class="st0" d="M30.925,11.035v18.758h-1.657V4.414h-6.073v25.379h-1.657V0h-6.075v29.793h-1.657V3.31H7.732
	v35.863H6.075v-19.31H0v25.654C0,55.718,8.289,64,18.5,64S37,55.718,37,45.517V11.035H30.925z M26.394,49.399H10.5l-1.18-1.252
	l1.18-1.154h16.038l1.142,1.131L26.394,49.399z"/>
</svg>
