<svg version="1.1" id="Layer_1" xmlns="http://www.w3.org/2000/svg" xmlns:xlink="http://www.w3.org/1999/xlink" x="0px" y="0px"
	 width="37px" height="64px" viewBox="0 0 37 64" style="enable-background:new 0 0 37 64;" xml:space="preserve">
<style type="text/css">
	.st0{fill-rule:evenodd;clip-rule:evenodd;fill:#010101;}
</style>
<path class="st0" d="M30.92,11.03v18.76h-1.66V4.41H23.2v25.38h-1.66V0h-6.08v29.79h-1.66V3.31H7.73v35.86H6.08V19.86H0v25.65
	C0,55.72,8.29,64,18.5,64S37,55.72,37,45.52V11.03H30.92z M26.44,49.21l-2.04,0.58c-0.14,0.51-0.34,1-0.6,1.45l1.03,1.85
	c0,0-0.33,0.42-0.67,0.76c-0.34,0.35-0.76,0.67-0.76,0.67l-1.85-1.03c-0.45,0.26-0.93,0.46-1.45,0.6l-0.58,2.04
	c0,0-0.53,0.06-1.02,0.06s-1.02-0.06-1.02-0.06l-0.58-2.04c-0.51-0.14-1-0.34-1.45-0.6l-1.85,1.03c0,0-0.42-0.33-0.76-0.67
	c-0.35-0.34-0.67-0.76-0.67-0.76l1.04-1.85c-0.26-0.45-0.46-0.93-0.6-1.45l-2.04-0.58c0,0-0.06-0.53-0.06-1.02s0.06-1.02,0.06-1.02
	l2.04-0.58c0.14-0.51,0.34-1,0.6-1.45l-1.04-1.85c0,0,0.33-0.42,0.67-0.76c0.34-0.35,0.76-0.67,0.76-0.67l1.85,1.04
	c0.45-0.26,0.93-0.46,1.45-0.6l0.58-2.04c0,0,0.53-0.06,1.02-0.06s1.02,0.06,1.02,0.06l0.58,2.04c0.51,0.14,1,0.34,1.45,0.6
	l1.85-1.04c0,0,0.42,0.33,0.76,0.67c0.34,0.34,0.67,0.76,0.67,0.76l-1.04,1.85c0.26,0.45,0.46,0.93,0.6,1.45l2.04,0.58
	c0,0,0.06,0.53,0.06,1.01S26.44,49.21,26.44,49.21z"/>
</svg>
