<?xml version="1.0" encoding="utf-8"?>
<!-- Generator: Adobe Illustrator 27.0.0, SVG Export Plug-In . SVG Version: 6.00 Build 0)  -->
<svg version="1.1" id="Layer_1" xmlns="http://www.w3.org/2000/svg" xmlns:xlink="http://www.w3.org/1999/xlink" x="0px" y="0px"
	 viewBox="0 0 29 43.52" style="enable-background:new 0 0 29 43.52;" xml:space="preserve">
<style type="text/css">
	.st0{fill:#FFFFFF;}
	.st1{fill:#010101;}
</style>
<g>
	<polygon class="st0" points="28.49,35.91 21.41,42.99 0.02,42.99 0.02,0.52 21.41,0.52 28.49,7.6 	"/>
	<path class="st1" d="M0,42.51h21.21l6.81-6.79L28,7.79L21.21,1H0V0h21.62L29,7.38v28.76l-7.38,7.38H0V42.51z"/>
</g>
<g>
	<path class="st1" d="M19.83,19.09h-1.78v1.78h-1.78v3.56h-3.56v-3.56h1.78v-1.78h1.78v-3.56h-3.56v3.56H9.17v-3.56h1.78v-1.78h7.11
		v1.78h1.78V19.09z M16.28,29.76h-3.56V26.2h3.56V29.76z"/>
</g>
</svg>
