<?xml version="1.0" encoding="utf-8"?>
<!-- Generator: Adobe Illustrator 28.1.0, SVG Export Plug-In . SVG Version: 6.00 Build 0)  -->
<svg version="1.1" id="Layer_1" xmlns="http://www.w3.org/2000/svg" xmlns:xlink="http://www.w3.org/1999/xlink" x="0px" y="0px"
	 viewBox="0 0 24 24" style="enable-background:new 0 0 24 24;" xml:space="preserve">
<style type="text/css">
	.st0{fill-rule:evenodd;clip-rule:evenodd;}
</style>
<path id="point" class="st0" d="M12,9.5c1.4,0,2.5,1.1,2.5,2.5s-1.1,2.5-2.5,2.5S9.5,13.4,9.5,12S10.6,9.5,12,9.5L12,9.5z"/>
<g id="unselected">
	<polygon class="st0" points="0,4 0,11.7 3.3,11.7 4,11 4,7.7 1.4,5.1 1.4,4.7 1.8,4.7 3.9,6.7 4.7,6.7 6.7,4.7 6.7,3.9 4.7,1.8 
		4.7,1.4 5.1,1.4 7.7,4 11,4 11.7,3.3 11.7,0 4,0 	"/>
	<polygon class="st0" points="20,0 12.3,0 12.3,3.3 13,4 16.3,4 18.9,1.4 19.3,1.4 19.3,1.8 17.3,3.8 17.3,4.7 19.3,6.7 20.2,6.7 
		22.2,4.7 22.6,4.7 22.6,5.1 20,7.7 20,11 20.7,11.7 24,11.7 24,4 	"/>
	<polygon class="st0" points="20,13 20,16.3 22.6,18.9 22.6,19.3 22.2,19.3 20.1,17.3 19.3,17.3 17.3,19.3 17.3,20.1 19.3,22.2 
		19.3,22.6 18.9,22.6 16.3,20 13,20 12.3,20.7 12.3,24 20,24 24,20 24,12.3 20.7,12.3 	"/>
	<polygon class="st0" points="7.7,20 5.1,22.6 4.7,22.6 4.7,22.2 6.7,20.1 6.7,19.3 4.7,17.3 3.9,17.3 1.8,19.3 1.4,19.3 1.4,18.9 
		4,16.3 4,13 3.3,12.3 0,12.3 0,20 4,24 11.7,24 11.7,20.7 11,20 	"/>
</g>
<g id="selected">
	<polygon class="st0" points="0,4 0,11.7 3.3,11.7 4,11 4,7.7 1.4,5.1 1.4,4.7 1.8,4.7 6.9,9.7 7.7,9.7 9.7,7.7 9.7,6.9 4.7,1.8 
		4.7,1.4 5.1,1.4 7.7,4 11,4 11.7,3.3 11.7,0 4,0 	"/>
	<polygon class="st0" points="20,0 12.3,0 12.3,3.3 13,4 16.3,4 18.9,1.4 19.3,1.4 19.3,1.8 14.3,6.8 14.3,7.7 16.3,9.7 17.2,9.7 
		22.2,4.7 22.6,4.7 22.6,5.1 20,7.7 20,11 20.7,11.7 24,11.7 24,4 	"/>
	<polygon class="st0" points="20,13 20,16.3 22.6,18.9 22.6,19.3 22.2,19.3 17.1,14.3 16.3,14.3 14.3,16.3 14.3,17.1 19.3,22.2 
		19.3,22.6 18.9,22.6 16.3,20 13,20 12.3,20.7 12.3,24 20,24 24,20 24,12.3 20.7,12.3 	"/>
	<polygon class="st0" points="7.7,20 5.1,22.6 4.7,22.6 4.7,22.2 9.7,17.1 9.7,16.3 7.7,14.3 6.9,14.3 1.8,19.3 1.4,19.3 1.4,18.9 
		4,16.3 4,13 3.3,12.3 0,12.3 0,20 4,24 11.7,24 11.7,20.7 11,20 	"/>
</g>
</svg>
