<?xml version="1.0" encoding="utf-8"?>
<!-- Generator: Adobe Illustrator 28.1.0, SVG Export Plug-In . SVG Version: 6.00 Build 0)  -->
<svg version="1.1" id="Layer_1" xmlns="http://www.w3.org/2000/svg" xmlns:xlink="http://www.w3.org/1999/xlink" x="0px" y="0px"
	 viewBox="0 0 152 206.5" style="enable-background:new 0 0 152 206.5;" xml:space="preserve">
<style type="text/css">
	.st0{fill-rule:evenodd;clip-rule:evenodd;fill:#DADADA;}
</style>
<polygon class="st0" points="145.8,54 125.8,33 125.8,20 145.8,0 151.8,0 151.8,54 "/>
<polygon class="st0" points="152,82 152,96 82.5,164.5 69.5,164.5 56.5,151.5 118.5,89 94.5,63.5 94.5,50.5 106.5,37.5 "/>
<polygon class="st0" points="146,180 126,159 126,146 146,126 152,126 152,180 "/>
<polygon class="st0" points="6.2,126 26.2,147 26.2,160 6.2,180 0.2,180 0.2,126 "/>
<polygon class="st0" points="0,98 0,84 69.5,15.5 82.5,15.5 95.5,28.5 33.5,91 57.5,116.5 57.5,129.5 45.5,142.5 "/>
<polygon class="st0" points="6,0 26,21 26,34 6,54 0,54 0,0 "/>
<circle class="st0" cx="76" cy="90" r="18"/>
</svg>
