<?xml version="1.0" encoding="utf-8"?>
<!-- Generator: Adobe Illustrator 25.4.1, SVG Export Plug-In . SVG Version: 6.00 Build 0)  -->
<svg version="1.1" id="Layer_1" xmlns="http://www.w3.org/2000/svg" xmlns:xlink="http://www.w3.org/1999/xlink" x="0px" y="0px"
	 width="283.46px" height="283.46px" viewBox="0 0 283.46 283.46" style="enable-background:new 0 0 283.46 283.46;"
	 xml:space="preserve">
<style type="text/css">
	.st0{fill-rule:evenodd;clip-rule:evenodd;fill:#010101;}
</style>
<path id="checked" class="st0" d="M0.08,137.86V47.19L47.31-0.04h90.67v39.36l-7.87,7.87H91.44L60.54,16.3h-5.36v5.36l70.85,70.85
	v9.78l-23.62,23.62h-9.78L21.78,55.06h-5.36v5.36l30.89,30.9v38.66l-7.87,7.87H0.08L0.08,137.86z M145.57-0.04h90.67l47.23,47.23
	v90.67H244.1l-7.87-7.87V91.32l30.89-30.9v-5.36h-5.36l-70.85,70.85h-9.78l-23.62-23.62v-9.78l70.85-70.85V16.3H223l-30.9,30.89
	h-38.66l-7.87-7.87V-0.04L145.57-0.04z M283.46,145.45v90.67l-47.23,47.23h-90.67v-39.36l7.87-7.87h38.66L223,267h5.36v-5.36
	l-70.85-70.85v-9.78l23.62-23.62h9.78l70.85,70.85h5.36v-5.36l-30.89-30.9v-38.66l7.87-7.87H283.46L283.46,145.45z M137.97,283.35
	H47.31L0.08,236.11v-90.67h39.36l7.87,7.87v38.66l-30.89,30.9v5.36h5.36l70.85-70.85h9.78l23.62,23.62v9.78l-70.85,70.85V267h5.36
	l30.9-30.89h38.66l7.87,7.87V283.35L137.97,283.35z"/>
<path id="unchecked" class="st0" d="M0.08,137.86V47.19L47.31-0.04h90.67v39.36l-7.87,7.87H91.44L60.54,16.3h-5.36v5.36l15.59,15.59
	v9.78L47.15,70.65h-9.78L21.78,55.06h-5.36v5.36l30.89,30.9v38.66l-7.87,7.87H0.08L0.08,137.86z M145.57-0.04h90.67l47.23,47.23
	v90.67H244.1l-7.87-7.87V91.32l30.89-30.9v-5.36h-5.36l-15.42,15.42h-9.78l-23.62-23.62v-9.78l15.42-15.42V16.3H223l-30.9,30.89
	h-38.66l-7.87-7.87V-0.04L145.57-0.04z M283.46,145.45v90.67l-47.23,47.23h-90.67v-39.36l7.87-7.87h38.66L223,267h5.36v-5.36
	l-16.25-16.25v-9.78l23.62-23.62h9.78l16.25,16.25h5.36v-5.36l-30.89-30.9v-38.66l7.87-7.87H283.46L283.46,145.45z M137.97,283.35
	H47.31L0.08,236.11v-90.67h39.36l7.87,7.87v38.66l-30.89,30.9v5.36h5.36l15.74-15.74h9.78l23.62,23.62v9.78l-15.74,15.74V267h5.36
	l30.9-30.89h38.66l7.87,7.87V283.35L137.97,283.35z"/>
<path id="center-ball" class="st0" d="M141.73,110.24c18.12,0,32.69,15.34,31.41,33.73c-1.08,15.52-13.65,28.09-29.17,29.17
	c-18.39,1.28-33.73-13.29-33.73-31.41C110.24,124.36,124.36,110.24,141.73,110.24L141.73,110.24z"/>
</svg>
