<svg version="1.1" xmlns="http://www.w3.org/2000/svg" xmlns:xlink="http://www.w3.org/1999/xlink" x="0px" y="0px" viewBox="0 0 96 96" style="enable-background:new 0 0 96 96;" xml:space="preserve">
	<g>
		<path d="M44.93,63.45v10.56h6.14V63.45h15.36l12.74-15.67L65.76,26.33L52.22,42.99l6.72,8.08l4.75-0.02l4.03-4.96 l-3.44-5.51l-2.99,3.68l-1.1-1.33l4.4-5.41l6.07,9.71l-7.51,9.24H51.07V39.97l13.12-16.14c0,0-9.01-14.41-13.59-21.74H45.4 c-4.58,7.33-13.59,21.74-13.59,21.74l13.12,16.14V56.5H32.88l-7.51-9.24l6.07-9.71l4.4,5.41l-1.1,1.33l-3.04-3.62l-3.39,5.42 l4.02,4.98l4.75,0.02l6.72-8.08L30.24,26.33L16.83,47.79l12.74,15.67H44.93z M39.89,24.03L48,11.04l8.11,12.99L48,34.01 C48,34.01,43.26,28.17,39.89,24.03z"/>
		<circle cx="48" cy="84.25" r="4.1"/>
		<polygon points="62.85,71.96 54.14,78.11 54.14,79.64 56.19,79.64 51.41,92.79 53.05,93.91 66.43,86.3 66.43,84.25 95.1,51.48 93.05,51.48 64.38,71.96"/>
		<polygon points="29.57,84.25 29.57,86.3 42.95,93.91 44.59,92.79 39.81,79.64 41.86,79.64 41.86,78.11 33.15,71.96 31.62,71.96 2.95,51.48 0.9,51.48"/>
		<polygon points="39.81,67.87 33.17,67.87 39.81,74.01"/>
		<polygon points="56.19,74.01 61.82,67.87 56.19,67.87"/>
	</g>
</svg>
