<svg version="1.1" xmlns="http://www.w3.org/2000/svg" xmlns:xlink="http://www.w3.org/1999/xlink" x="0px" y="0px"  viewBox="0 0 96 96" style="enable-background:new 0 0 96 96;" xml:space="preserve">
	<g>
		<path d="M32.55,44.93H21.99v6.14h10.56v15.36l15.67,12.74l21.45-13.41L53.01,52.22l-8.08,6.72l0.02,4.75l4.96,4.03 l5.51-3.44l-3.68-2.99l1.33-1.1l5.41,4.4l-9.71,6.07l-9.24-7.51V51.07h16.53l16.14,13.12c0,0,14.41-9.01,21.74-13.59V45.4 c-7.33-4.58-21.74-13.59-21.74-13.59L56.03,44.93H39.5V32.88l9.24-7.51l9.71,6.07l-5.41,4.4l-1.33-1.1l3.62-3.04l-5.42-3.39 l-4.98,4.02l-0.02,4.75l8.08,6.72l16.66-13.54L48.21,16.83L32.55,29.57V44.93z M71.97,39.89L84.96,48l-12.99,8.11L61.99,48 C61.99,48,67.83,43.26,71.97,39.89z"/>
		<circle cx="11.75" cy="48" r="4.1"/>
		<polygon points="24.04,62.85 17.89,54.14 16.36,54.14 16.36,56.19 3.21,51.41 2.09,53.05 9.7,66.43 11.75,66.43  44.52,95.1 44.52,93.05 24.04,64.38 	"/>
		<polygon points="11.75,29.57 9.7,29.57 2.09,42.95 3.21,44.59 16.36,39.81 16.36,41.86 17.89,41.86 24.04,33.15  24.04,31.62 44.52,2.95 44.52,0.9 	"/>
		<polygon points="28.13,39.81 28.13,33.17 21.99,39.81 	"/>
		<polygon points="21.99,56.19 28.13,61.82 28.13,56.19 	"/>
	</g>
</svg>
