<svg version="1.1"  xmlns="http://www.w3.org/2000/svg" xmlns:xlink="http://www.w3.org/1999/xlink" x="0px" y="0px" viewBox="0 0 96 96" style="enable-background:new 0 0 96 96;" xml:space="preserve">
	<g>
		<path d="M51.1,32.5V22h-6.1v10.6H29.6L16.8,48.2l13.4,21.5L43.8,53l-6.7-8.1l-4.7,0l-4,5l3.4,5.5l3-3.7l1.1,1.3 l-4.4,5.4l-6.1-9.7l7.5-9.2h12.1V56L31.8,72.2c0,0,9,14.4,13.6,21.7h5.2c4.6-7.3,13.6-21.7,13.6-21.7L51.1,56V39.5h12.1l7.5,9.2 l-6.1,9.7L60.2,53l1.1-1.3l3,3.6l3.4-5.4l-4-5l-4.7,0L52.2,53l13.5,16.7l13.4-21.5L66.4,32.5H51.1z M56.1,72L48,85l-8.1-13L48,62 C48,62,52.7,67.8,56.1,72z"/>
		<circle cx="48" cy="11.8" r="4.1"/>
		<polygon points="33.2,24 41.9,17.9 41.9,16.4 39.8,16.4 44.6,3.2 43,2.1 29.6,9.7 29.6,11.8 0.9,44.5 2.9,44.5  31.6,24 "/>
		<polygon points="66.4,11.8 66.4,9.7 53,2.1 51.4,3.2 56.2,16.4 54.1,16.4 54.1,17.9 62.8,24 64.4,24 93.1,44.5  95.1,44.5 "/>
		<polygon points="56.2,28.1 62.8,28.1 56.2,22 "/>
		<polygon points="39.8,22 34.2,28.1 39.8,28.1 "/>
	</g>
</svg>
