
<svg version="1.1" xmlns="http://www.w3.org/2000/svg" xmlns:xlink="http://www.w3.org/1999/xlink" x="0px" y="0px" viewBox="0 0 96 96" style="enable-background:new 0 0 96 96;" xml:space="preserve">
	<g>
		<path d="M63.45,51.07h10.56v-6.14H63.45V29.57L47.79,16.83L26.33,30.24l16.66,13.54l8.08-6.72l-0.02-4.75L46.1,28.3 l-5.51,3.44l3.68,2.99l-1.33,1.1l-5.41-4.4l9.71-6.07l9.24,7.51v12.05H39.97L23.83,31.81c0,0-14.41,9.01-21.74,13.59v5.21 c7.33,4.58,21.74,13.59,21.74,13.59l16.14-13.12H56.5v12.05l-9.24,7.51l-9.71-6.07l5.41-4.4l1.33,1.1l-3.62,3.04l5.42,3.39 l4.98-4.02l0.02-4.75l-8.08-6.72L26.33,65.76l21.45,13.41l15.67-12.74V51.07z M24.03,56.11L11.04,48l12.99-8.11L34.01,48 C34.01,48,28.17,52.74,24.03,56.11z"/>
		<circle cx="84.25" cy="48" r="4.1"/>
		<polygon points="71.96,33.15 78.11,41.86 79.64,41.86 79.64,39.81 92.79,44.59 93.91,42.95 86.3,29.57 84.25,29.57  51.48,0.9 51.48,2.95 71.96,31.62 	"/>
		<polygon points="84.25,66.43 86.3,66.43 93.91,53.05 92.79,51.41 79.64,56.19 79.64,54.14 78.11,54.14 71.96,62.85  71.96,64.38 51.48,93.05 51.48,95.1 	"/>
		<polygon points="67.87,56.19 67.87,62.83 74.01,56.19 	"/>
		<polygon points="74.01,39.81 67.87,34.18 67.87,39.81 	"/>
	</g>
</svg>
