<svg width="96" height="96" viewBox="0 0 96 96" fill="none" xmlns="http://www.w3.org/2000/svg">
<rect width="96" height="96" fill="white"/>
<path fill-rule="evenodd" clip-rule="evenodd" d="M83.1716 5.17157C84.7337 3.60948 87.2663 3.60948 88.8284 5.17157C90.3905 6.73367 90.3905 9.26633 88.8284 10.8284L53.1569 46.5L88.8284 82.1716C90.3905 83.7337 90.3905 86.2663 88.8284 87.8284C87.2663 89.3905 84.7337 89.3905 83.1716 87.8284L47.5 52.1569L11.8284 87.8284C10.2663 89.3905 7.73367 89.3905 6.17157 87.8284C4.60947 86.2663 4.60947 83.7337 6.17157 82.1716L41.8431 46.5L6.17157 10.8284C4.60948 9.26633 4.60948 6.73367 6.17157 5.17157C7.73367 3.60948 10.2663 3.60948 11.8284 5.17157L47.5 40.8431L83.1716 5.17157Z" fill="black"/>
</svg>
