
<svg version="1.1" xmlns="http://www.w3.org/2000/svg" xmlns:xlink="http://www.w3.org/1999/xlink" x="0px" y="0px" viewBox="0 0 40 40" style="enable-background:new 0 0 40 40;" xml:space="preserve">
	<g>
			<polygon points="20,18.8 1.2,0 6.6,0 20.9,14.3 20.9,12.6 33.4,0 38.7,0 20,18.8"/>
			<polygon points="20,21.2 38.7,40 33.4,40 19.1,25.7 19.1,27.4 6.6,40 1.2,40 20,21.2"/>
			<polygon points="21.2,20 40,1.3 40,6.6 25.7,20.9 27.4,20.9 40,33.4 40,38.8 21.2,20"/>
			<polygon points="18.7,20 0,38.8 0,33.4 14.3,19.1 12.6,19.1 0,6.6 0,1.3 18.7,20"/>
	</g>
</svg>
