<svg version="1.1" xmlns="http://www.w3.org/2000/svg" xmlns:xlink="http://www.w3.org/1999/xlink" x="0px" y="0px"  viewBox="0 0 96 96" style="enable-background:new 0 0 96 96;" xml:space="preserve">
<g>
	<ellipse  cx="48" cy="48" rx="15.1" ry="15.1"/>
	<path d="M78.2,47.8c-0.1-16.7-13.8-30.1-30.4-30c-16.7,0.1-30.1,13.8-30,30.4c0.1,16.7,13.8,30.1,30.4,30 C64.9,78.1,78.3,64.5,78.2,47.8z M27.9,48.1C27.8,37.1,36.8,28,47.9,27.9c11.1-0.1,20.1,8.9,20.2,19.9S59.2,68,48.1,68.1 C37.1,68.2,28,59.2,27.9,48.1z"/>
	<path d="M86.7,47.7c-0.1-21.3-17.6-38.6-39-38.4C26.4,9.4,9.2,26.9,9.3,48.3c0.1,21.3,17.6,38.6,39,38.4 C69.6,86.6,86.8,69.1,86.7,47.7z M13.9,48.2C13.7,29.4,28.9,14,47.8,13.9C66.6,13.7,82,28.9,82.1,47.8C82.3,66.6,67.1,82,48.2,82.1 C29.4,82.3,14,67.1,13.9,48.2z"/>
	<path d="M93,47.7C93.2,72.5,73.1,92.8,48.3,93l0,3C74.8,95.8,96.2,74.1,96,47.7L93,47.7z"/>
	<path d="M47.7,3l0-3C21.2,0.2-0.2,21.9,0,48.3l3,0C2.8,23.5,22.9,3.2,47.7,3z"/>
</g>
</svg>
