<svg version="1.1" xmlns="http://www.w3.org/2000/svg" xmlns:xlink="http://www.w3.org/1999/xlink" x="0px" y="0px" viewBox="0 0 96 96" style="enable-background:new 0 0 96 96;" xml:space="preserve">
    <polygon class="icon-bg" points="82.29,21.4 74.6,13.71 17.83,13.71 13.71,17.83 13.71,78.17 17.83,82.29 78.17,82.29 82.29,78.17 "/>
    <path class="icon-save-arrow" d="M51.96,67.14l15.63-15.63l0.93,0.93v9.33L53.6,76.69H42.4L27.48,61.77v-9.33l0.93-0.93l15.63,15.63 v-6.3h-2.57L27.48,46.85v-9.33l0.93-0.93l15.63,15.63v-31.8l1.32-1.32h5.28l1.32,1.32v31.8l15.63-15.63l0.93,0.93v9.33L54.53,60.84 h-2.57V67.14L51.96,67.14z"/>
    <path class="icon-save-box" d="M0,30.86V8.58L8.58,0h71.7L96,15.72v71.7L87.42,96H8.58L0,87.42V30.86z M82.29,21.4l-7.69-7.69H17.83 l-4.12,4.12v60.34l4.12,4.12h60.34l4.12-4.12C82.29,78.17,82.29,21.4,82.29,21.4z"/>
</svg>
