<?xml version="1.0" encoding="utf-8"?>
<!-- Generator: Adobe Illustrator 27.8.1, SVG Export Plug-In . SVG Version: 6.00 Build 0)  -->
<svg version="1.1" xmlns="http://www.w3.org/2000/svg" xmlns:xlink="http://www.w3.org/1999/xlink" x="0px" y="0px" width="512px"
	 height="512px" viewBox="0 0 512 512" style="enable-background:new 0 0 512 512;" xml:space="preserve">
<style type="text/css">
	.st0{fill:#787878;}
	.st1{fill:#5F5F5F;}
	.st2{fill:#606060;}
	.st3{fill:#4E4E4E;}
	.st4{fill:#777777;}
	.st5{fill:#4D4D4D;}
	.st6{fill:#767676;}
	.st7{fill:#4B4B4B;}
	.st8{fill:#5E5E5E;}
</style>
<g id="Layer_2">
</g>
<g id="Layer_1">
	<path class="st0" d="M65.4,366.4c0.7-0.7,1.3-2,2.1-2.2c11.4-2.8,22.9-5.6,34.4-8.2c1.7-0.4,3.6-0.4,5.3-0.6c0,0,0,0,0,0
		c0,5.8,1.2,11.7,1.2,17.5c0,4.1-1.2,4.1-5.2,3.9C90.5,373.3,77.9,369.9,65.4,366.4z"/>
	<path class="st1" d="M355.9,93.5c-1.5,0.4-3,0.9-4.5,1.1c-8.2,1.1-16.4,2.1-24.7,3.3c-14.3,2-28.5,4.1-42.7,6.1
		c-8.4,1.2-16.8,2.9-25.3,3.4c-5.9,0.4-11.9-0.8-17.8-1.4c-3.9-0.4-7.8-1.3-11.7-1.9c-6.6-0.9-13.3-1.8-20-2.6
		c-0.1-0.3-0.2-0.5-0.2-0.8c1.3-0.4,2.6-1,4-1.2c11.1-1.6,22.2-3.1,33.3-4.6c15.6-2.1,31.2-4,46.8-6.1c9.7-1.3,19.3-2.9,29-4.2
		c10.3-1.4,20.7-2.7,31-3.7c2.4-0.2,4.9,0.7,7.4,1.1c-2-0.2-4-0.3-6-0.5c-2.1-0.2-3.4,0.5-3.3,2.8c0.1,1.5,0,3.1,0,4.6
		C351.2,93.4,351.2,93.4,355.9,93.5z"/>
	<path class="st2" d="M262.9,79.5c-1.4,0.4-2.8,0.9-4.2,1.1c-8.8,1.1-17.6,2.1-26.4,3.1c-10.5,1.3-21.1,2.6-31.6,4
		c-10.3,1.4-20.6,2.9-31,4.3c-4.5,0.6-9,1.3-13.5,1.3c-3.8,0-7.6-0.8-11.4-1.4c-6.6-1-13.3-2.1-19.9-3.1c-3.6-0.5-7.2-0.9-10.8-1.4
		c0-0.3-0.1-0.5-0.1-0.8c2.7-0.4,5.3-0.9,8-1.3c11.5-1.4,23-2.8,34.5-4.3c14-1.7,28-3.4,42-5.2c7.6-1,15.1-2.1,22.6-3.1
		c11.7-1.5,23.4-2.9,35.1-4.3c0.7-0.1,1.5,0.3,2.2,0.4c-0.8,0.9-2,1.7-2.2,2.7c-0.4,1.6-0.1,3.4-0.1,5.1c-0.1,2.4,0.9,3.3,3.3,2.8
		C260.4,79.4,261.7,79.6,262.9,79.5z"/>
	<path class="st3" d="M355.9,93.5c-4.7-0.1-4.7-0.1-4.7-4.7c0-1.5,0.1-3.1,0-4.6c-0.1-2.3,1.1-3,3.3-2.8c2,0.2,4,0.3,6,0.5
		c5.1,0.7,10.3,1.4,15.4,2c4,0.5,8,1,12,1.5c3.3,0.4,6.6,0.8,10,1.9c-1.5,0.3-3,0.6-4.6,0.9c-7.1,1-14.1,2-21.2,3
		C366.8,91.9,361.3,92.7,355.9,93.5z"/>
	<path class="st3" d="M262.9,79.5c-1.2,0-2.5-0.1-3.7,0.1c-2.4,0.5-3.4-0.3-3.3-2.8c0.1-1.7-0.2-3.5,0.1-5.1c0.2-1,1.4-1.8,2.2-2.7
		c5.6,0.7,11.2,1.4,16.8,2.1c4.1,0.5,8.2,0.9,12.3,1.4c3.9,0.5,7.8,1,11.7,1.5c0,0.3,0.1,0.6,0.1,0.9C287.1,76.5,275,78,262.9,79.5z
		"/>
	<path class="st0" d="M414.2,353.4c6.8,1.5,5,4.8,11.8,6.4c1.4,0.3,4.8-1.3,6.2-1.1c3.5,1,5.1-0.4,8.6,0.6c1.7,0.5,3.9,1.2,5.6,1.7
		c5.9-3.3,7.8,5,7.9,5.2c-1.2,0.5-10.8,0.8-12,1.2c-13,3.7-26.1,7.3-39.1,11c-22.5,6.4-45,12.8-67.5,19.2
		c-8.1,2.3-16.2,4.5-24.3,6.7c-3,0.8-3.6,0.3-3.6-2.9c0-6.8,0-13.5,0-20.3c0-2.5-2.5-2.6,0-3.2c13-3.3,73.5-20.2,87.8-24
		C395.4,353.3,404.6,351.2,414.2,353.4z"/>
	<path class="st4" d="M405.8,220.5c7.6,1.2,13.1,4.8,20.6,6.2c4,0.7,8,1.3,11.9,2c3.2,0.8,13.5-1.3,17.4-0.4
		c-1.3,0.7-1.7,3.4-2.4,3.6c-14.7,3.2-36.6,7-51.4,10.1c-10,2.2-20,4.3-30.1,6.5c-19.7,4.3-39.5,8.7-59.2,13c-3.6,0.8-4.5,0-4.6-3.7
		c0-3.9,0.2-7.8-0.1-11.6c-0.2-3.1-6-3.9-3-5.1c11.2-2.3,29-6,40.2-8.3c4.3-0.8,8.7-1.6,13-2.5c10.2-2.1,20.4-4.3,30.6-6.4
		C391.4,223.5,403.2,220.1,405.8,220.5z"/>
	<path class="st5" d="M399.4,313.5c0.2-1.8,1.3-2.5,3-2.9c10.3-2.5,20.6-5,30.9-7.6c4.8-1.2,9.5-2.4,14.3-3.6
		c2.1-0.5,2.9,0.4,2.9,2.3c0,2.8,0.1,5.6,0,8.4c-0.2,14.8-0.4,29.5-0.6,44.3c0,2.3-0.4,4.6-0.5,6.9c-0.1,2.6,0.7,3.7-2.7,2.9
		c-3.4-0.9-8.7-2.2-12.6-3.1c-1.3-0.3-2.7-0.4-4-0.6c-1.4-0.3-2.8-0.5-4.2-0.8c-6.7-1.6-13.4-3.4-20.2-4.9
		c-9.6-2.1-8.2-1.1-7.9-10.4C398.1,334.1,398.9,323.8,399.4,313.5z"/>
	<path class="st5" d="M400.5,172.5c-0.1-2.7,2.2-0.6,4.7-1c7.4-1.3,14.8-2.5,22.2-3.9c7-1.3,14.1-2.6,21-4c4.1-0.9,5-0.5,5,3.6
		c-0.4,20.1-0.8,40.2-1.1,60.3c0,2.1-0.8,3-3,2.6c-3.6-0.6-7.3-1-10.9-1.5c-4-0.7-8-1.3-11.9-2c-7.6-1.4-15.1-3-22.7-4.2
		c-2.6-0.4-3.2-1.4-3.2-3.7c0.1-6,0-12,0.1-18C400.6,199.6,400.7,178,400.5,172.5z"/>
	<path class="st6" d="M271.8,136.9h-25.5l-5.5-15.6c-9.2-1.5-18.4-3-27.6-4.4c-6.4-1-12.8-1.6-19.2-2.6c-6.5-1-12.9-2.2-19.3-3.2
		c-3.6-0.6-7.3-0.9-10.9-1.4c-4-0.6-8-1.3-11.9-2c-3-0.5-6.1-1-9.1-1.4c-7.5-1.1-15-2.3-22.5-3.4c-6.5-0.9-13-1.6-19.5-2.6
		c-6.2-0.9-12.3-2.1-18.5-3.1c-3.7-0.6-7.4-0.9-11.2-1.4c-3.4-0.5-6.8-1-10.3-1.5c-4-0.6-8-1.3-12-2c-7-1.1-14.1-2.2-21.1-3.2
		c-3.7-0.5-7.4-1-11.2-1.4c-2-0.2-3.4-0.8,0.4-1.3c8.3-0.9,16.5-2,24.8-3c10.6-1.3,21.1-2.6,31.7-3.8c8.8-1.1,17.7-2.1,26.5-3.2
		c14.1-1.7,28.2-3.4,42.3-5.1c11.3-1.4,22.7-2.8,34-4.2c14.3-1.7,28.6-3.4,42.9-5.1c11.3-1.4,22.6-3.1,34-4.1
		c4.8-0.4,9.8,0.4,14.7,0.9c4.4,0.4,8.8,1.3,13.2,1.8c7.9,0.9,15.7,1.7,23.6,2.6c11.1,1.4,22.2,2.9,33.3,4.3
		c7.6,0.9,15.2,1.7,22.7,2.6c8.2,1,16.4,2.1,24.7,3.2c3.7,0.5,7.5,0.9,11.2,1.3c7.9,0.9,15.7,1.6,23.6,2.6c11,1.4,22,2.9,33,4.3
		c8.2,1,16.5,1.8,24.8,2.7c6.2,0.7,12.4,1.5,18.7,2.2c1.7,0.2,1.1,0.8-3.1,1.2c-0.6,0.1-1.1,0.2-1.7,0.3c-9.1,1.4-18.1,2.9-27.2,4.3
		c-14.1,2.1-28.1,4-42.2,6.1c-9.1,1.4-18.1,2.9-27.2,4.3c-11.4,1.7-22.8,3.2-34.1,5c-16.8,2.5-33.6,5.2-50.4,7.8
		c-16.9,2.6-33.8,5.1-50.8,7.5L271.8,136.9z M262.9,79.5c12.1-1.5,24.2-3.1,36.3-4.6c0-0.3-0.1-0.6-0.1-0.9c-3.9-0.5-7.8-1-11.7-1.5
		c-4.1-0.5-8.2-0.9-12.3-1.4c-5.6-0.7-11.2-1.4-16.8-2.1c-0.7-0.2-1.5-0.5-2.2-0.4c-11.7,1.4-23.4,2.8-35.1,4.3
		c-7.6,1-15.1,2.1-22.6,3.1c-14,1.8-28,3.4-42,5.2c-11.5,1.4-23,2.8-34.5,4.3c-2.7,0.3-5.3,0.8-8,1.3c0,0.3,0.1,0.5,0.1,0.8
		c3.6,0.5,7.2,0.9,10.8,1.4c6.6,1,13.3,2.1,19.9,3.1c3.8,0.6,7.6,1.4,11.4,1.4c4.5,0,9-0.7,13.5-1.3c10.3-1.4,20.6-2.9,31-4.3
		c10.5-1.4,21.1-2.7,31.6-4c8.8-1.1,17.6-2,26.4-3.1C260.2,80.4,261.5,79.9,262.9,79.5z M355.9,93.5c5.4-0.8,10.9-1.5,16.3-2.3
		c7.1-1,14.1-2,21.2-3c1.5-0.2,3-0.6,4.6-0.9c-3.4-1.1-6.7-1.5-10-1.9c-4-0.5-8-0.9-12-1.5c-5.1-0.7-10.3-1.4-15.4-2
		c-2.5-0.4-5-1.3-7.4-1.1c-10.4,1.1-20.7,2.4-31,3.7c-9.7,1.3-19.3,2.9-29,4.2c-15.6,2.1-31.2,4-46.8,6.1c-11.1,1.5-22.2,3-33.3,4.6
		c-1.3,0.2-2.6,0.8-4,1.2c0.1,0.3,0.2,0.5,0.2,0.8c6.7,0.9,13.3,1.7,20,2.6c3.9,0.6,7.8,1.5,11.7,1.9c5.9,0.7,11.9,1.8,17.8,1.4
		c8.5-0.5,16.9-2.2,25.3-3.4c14.2-2,28.5-4.1,42.7-6.1c8.2-1.1,16.4-2.1,24.7-3.3C352.9,94.4,354.4,93.8,355.9,93.5z"/>
	<path class="st7" d="M254.2,490.7c-2.3-0.6-4.6-1.2-6.9-1.8c-0.4-0.2-0.8-0.6-1.2-0.7c-8.9-2.9-17.8-5.7-26.7-8.6
		c-4.2-1.4-8.5-2.7-12.7-4.1c-0.7-0.1-1.3-0.2-2-0.4c-8.7-2.7-17.3-5.5-25.9-8.3c-4.1-1.4-8.1-2.7-12.2-4.1
		c-6.4-1.9-12.8-3.9-19.1-5.8c-4-1.2-8.1-2.3-12.1-3.5c-5.3-1.7-10.5-3.5-15.8-5.2c-4.2-1.4-8.5-2.7-12.7-4.1
		c-4.1-1.2-8.1-2.3-12.2-3.5c-5.2-1.7-10.5-3.4-15.7-5.2c-4.3-1.4-8.5-2.7-12.8-4.1c-9.3-2.9-18.6-5.8-27.9-8.7
		c-0.7-0.4-1.3-0.9-2-1.1c-3.9-1.2-7.8-2.4-11.7-3.5c-2-0.6-3.1-1.5-3.2-3.8c-0.1-6.5-0.5-12.9-0.6-19.4
		c-0.4-16.4-0.8-32.9-1.2-49.3c-0.4-20.5-0.7-41-1.2-61.5c-0.3-12.3-0.8-24.5-1.2-36.8c-0.1-8.8-0.2-17.6-0.4-26.4
		c-0.4-17.8-0.8-35.6-1.2-53.3c-0.3-14-0.5-28-0.7-42c0-0.6-0.1-1.2-0.1-1.7c-0.3-11.1-0.7-22.2-1-33.3c-0.1-2.1,0.9-3.1,3-2.9
		c3.7,0.4,7.5,0.9,11.2,1.4c7,1,14.1,2.1,21.1,3.2c4,0.6,8,1.3,12,2c3.4,0.5,6.8,1,10.3,1.5c3.7,0.5,7.5,0.9,11.2,1.4
		c6.2,1,12.3,2.2,18.5,3.1c6.5,1,13,1.7,19.5,2.6c7.5,1.1,15,2.2,22.5,3.4c3,0.5,6.1,0.9,9.1,1.4c4,0.6,7.9,1.4,11.9,2
		c3.6,0.5,7.3,0.9,10.9,1.4c6.5,1,12.9,2.2,19.3,3.2c6.4,1,12.8,1.6,19.2,2.6c9.2,1.4,18.4,3,27.6,4.4c3.2,0.6,6.4,1.3,9.7,1.7
		c5.2,0.6,5.4,0.8,5.4,6c0,120.4,0,240.7,0,361.1C255.3,490.3,254.7,490.5,254.2,490.7z M107.2,355.3L107.2,355.3
		c-0.4-19.7-0.8-39.4-1.1-59.2c-0.4-28.6-0.8-57.2-1.2-85.9c-0.1-11.7-0.1-23.4,0-35.1c0-2.3-0.5-3.9-3.2-4.2
		c-2.3-0.2-4.5-0.9-6.8-1.3c-5.5-1.1-10.9-2.1-16.4-3.1c-5-0.9-10.1-1.6-15-2.8c-4.4-1.1-5.2-0.8-5.1,3.9c0.3,9.1,0.9,18.1,1.1,27.2
		c0.5,20.1,0.8,40.2,1.2,60.3c0.4,21.8,0.8,43.7,1.2,65.5c0.2,13.8,0.4,27.7,0.6,41.5c0,2.1,0.3,4,2.9,4.2
		c12.6,3.5,25.2,7,37.8,10.5c2.3-0.5,4,1.3,4.1-2.9C107.2,370.6,107.4,358.2,107.2,355.3z M201.3,404.7c2.9,0.7,3.5,0.2,3.4-3
		c-0.3-9.5-1-19.1-1.1-28.6c-0.3-58.9-0.4-117.9-0.6-176.8c0-6.4,0-6.4-6.2-7.9c-0.2,0-0.4-0.1-0.6-0.2c-5.2-1-10.4-2.1-15.6-3.1
		c-7.8-1.5-15.7-2.8-23.5-4.4c-3.5-0.7-4.7,0-4.6,3.6c0.1,6.5,0.4,12.9,0.5,19.4c0.2,11.2,0.5,22.4,0.6,33.6
		c0.2,28.2,0.4,56.3,0.6,84.5c0.2,19.9,0.4,39.9,0.6,59.8c0,2.4-0.2,4.9,0.1,7.3c0.1,1,1.1,1.9,1.7,2.9c6.2,1.7,12.5,3.2,18.7,5
		C184,399.4,192.6,402.1,201.3,404.7z"/>
	<path class="st8" d="M259.8,122.8c16.9-2.4,33.8-4.9,50.8-7.5c16.8-2.5,33.6-5.2,50.4-7.8c11.4-1.7,22.8-3.3,34.1-5
		c9.1-1.4,18.1-2.9,27.2-4.3c14.1-2.1,28.1-4,42.2-6.1c9.1-1.3,18.1-2.8,27.2-4.3c0.6-0.1,1.1-0.2,1.7-0.3c4.2-0.4,4.8,0.1,4.8,4.3
		c-0.4,18-0.7,36-1.2,53.9c-0.3,13.1-0.8,26.3-1.1,39.4c-0.5,20-0.8,40-1.2,60c-0.3,16.3-0.8,32.7-1.1,49c-0.4,17-0.8,34-1.2,51
		c-0.4,16.3-0.7,32.7-1.2,49c-0.2,6.8-0.6,13.5-1.2,20.2c-0.1,1.2-1.5,2.8-2.7,3.2c-11.7,3.8-23.4,7.3-35.1,11
		c-9.8,3.1-19.5,6.2-29.3,9.3c-10.9,3.4-21.8,6.8-32.6,10.2c-11.7,3.7-23.4,7.5-35.1,11.1c-15.6,4.9-31.2,9.7-46.7,14.5
		c-11.4,3.6-22.8,7.3-34.2,10.9c-6.1,1.9-12.2,3.6-18.3,5.4c0-120.4,0-240.7,0-361.1C255.9,123.8,257.8,123.1,259.8,122.8z
		 M326.8,336.2 M313.5,333.5c2.2-0.6-5.2,0.8-5.3,4.8c0,3.2,0,6.4,0,9.6c0,3.7-0.6,30.7-0.6,33.2c0.1,6.8,0,13.5,0,20.3
		c0,3.2,0.6,3.7,3.6,2.9c8.1-2.2,16.2-4.4,24.3-6.7c22.5-6.4,45-12.8,67.5-19.2c13-3.7,26.1-7.3,39.1-11c1.3-0.4,3.4-1,5.2-1.7
		c1.8-0.7,1.9-1.7,2-4.3c0.1-2.3,1.1-56.8,1-59.6c0-1.9-0.8-2.9-2.9-2.3c-4.8,1.2-9.5,2.4-14.3,3.6
		C423,305.6,311.3,334.1,313.5,333.5z M308.2,246.2c0.2,3.9,0,7.7,0.1,11.6c0,3.7,0.9,4.5,4.6,3.7c19.7-4.3,39.5-8.7,59.2-13
		c10-2.2,20-4.3,30.1-6.5c14.7-3.2,29.5-6.3,44.2-9.6c0.7-0.1,2.1-0.5,3.8-1.1c1.8-0.7,2.1-1.7,2.2-3.8c0.4-20.1,0.8-40.2,1.1-60.3
		c0.1-4.1-0.8-4.5-5-3.6c-7,1.5-14,2.8-21,4c-7.4,1.3-78.5,14.3-80.5,14.8c-2.7,0.6-5.5,1.1-8.3,1.6c-8.9,1.6-17.9,3.3-26.8,5
		c-2.1,0.4-3.1,1.7-3.1,3.9c-0.2,14.4-0.3,28.8-0.6,43.2C308.1,238.6,308,243.1,308.2,246.2z"/>
	<path class="st1" d="M156.6,391.9c-0.6-1-1.5-1.9-1.7-2.9c-0.2-2.4-0.1-4.8-0.1-7.3c-0.2-19.9-0.4-39.9-0.6-59.8
		c-0.2-28.2-0.4-56.3-0.6-84.5c-0.1-11.2-0.4-22.4-0.6-33.6c-0.1-6.5-0.4-12.9-0.5-19.4c-0.1-3.7,1.1-4.3,4.6-3.6
		c7.8,1.6,15.7,2.9,23.5,4.4c5.2,1,10.4,2,15.6,3.1c0.2,0,0.4,0.1,0.6,0.2c6.2,1.5,6.2,1.5,6.2,7.9c0.2,58.9,0.3,117.9,0.6,176.8
		c0,9.5,0.8,19.1,1.1,28.6c0.1,3.3-0.6,3.7-3.4,3c2.2-0.1,2.3-1.6,2.3-3.2c0-6.4,0-12.7,0-19.1c0-3-0.5-3.4-3.5-2.6
		c-13.8,3.5-27.6,7.1-41.5,10.7C157.9,390.6,157.3,391.4,156.6,391.9z"/>
	<path class="st1" d="M65.4,366.4c-2.6-0.2-2.9-2.1-2.9-4.2c-0.2-13.8-0.4-27.7-0.6-41.5c-0.4-21.8-0.8-43.7-1.2-65.5
		c-0.4-20.1-0.7-40.2-1.2-60.3c-0.2-9.1-0.8-18.1-1.1-27.2c-0.1-4.6,0.7-4.9,5.1-3.9c4.9,1.2,10,1.8,15,2.8c5.5,1,10.9,2.1,16.4,3.1
		c2.3,0.4,4.5,1.1,6.8,1.3c2.7,0.3,3.2,1.9,3.2,4.2c-0.1,11.7-0.1,23.4,0,35.1c0.3,28.6,0.7,57.2,1.2,85.9
		c0.3,19.7,0.7,39.4,1.1,59.2c-1.8,0.2-3.6,0.2-5.3,0.6c-11.5,2.7-23,5.4-34.4,8.2C66.6,364.4,66,365.6,65.4,366.4z"/>
	<path class="st0" d="M156.6,391.9c0.7-0.5,1.3-1.3,2.1-1.5c13.8-3.6,27.6-7.2,41.5-10.7c3-0.8,3.5-0.4,3.5,2.6c0,6.4,0,12.7,0,19.1
		c0,1.7-0.1,3.2-2.3,3.2c-8.7-2.6-17.3-5.3-26-7.8C169.1,395.1,162.8,393.6,156.6,391.9z"/>
</g>
<g id="Layer_3">
</g>
</svg>
