<?xml version="1.0" encoding="utf-8"?>
<!-- Generator: Adobe Illustrator 27.8.1, SVG Export Plug-In . SVG Version: 6.00 Build 0)  -->
<svg version="1.1" id="Layer_1" xmlns="http://www.w3.org/2000/svg" xmlns:xlink="http://www.w3.org/1999/xlink" x="0px" y="0px"
	 width="32px" height="32px" viewBox="0 0 32 32" style="enable-background:new 0 0 32 32;" xml:space="preserve">
<style type="text/css">
	.st0{fill-rule:evenodd;clip-rule:evenodd;fill:#010101;}
</style>
<path class="st0" d="M18.1,15.7l10.4,10.4C30.7,23.3,32,19.8,32,16c0-4-1.4-7.6-3.8-10.4L18.1,15.7z"/>
<path class="st0" d="M5.6,28.2C8.4,30.6,12,32,16,32s7.6-1.4,10.4-3.8L16,17.8L5.6,28.2z"/>
<path class="st0" d="M13.9,15.7L3.8,5.6C1.4,8.4,0,12,0,16c0,3.8,1.3,7.3,3.6,10.1L13.9,15.7z"/>
<path class="st0" d="M26.1,3.6C23.3,1.3,19.8,0,16,0S8.7,1.3,5.9,3.6L16,13.7L26.1,3.6z"/>
<polygon class="st0" points="0,0 0,5.3 5.3,0 "/>
<polygon class="st0" points="0,32 5.3,32 0,26.7 "/>
<polygon class="st0" points="32,5.3 32,0 26.7,0 "/>
<polygon class="st0" points="32,32 32,26.7 26.7,32 "/>
</svg>
