<?xml version="1.0" encoding="utf-8"?>
<!-- Generator: Adobe Illustrator 25.4.1, SVG Export Plug-In . SVG Version: 6.00 Build 0)  -->
<svg version="1.1" id="Layer_1" xmlns="http://www.w3.org/2000/svg" xmlns:xlink="http://www.w3.org/1999/xlink" x="0px" y="0px"
	 width="94.7px" height="49.3px" viewBox="0 0 94.7 49.3" style="enable-background:new 0 0 94.7 49.3;" xml:space="preserve">
<style type="text/css">
	.st0{fill-rule:evenodd;clip-rule:evenodd;fill:#010101;}
</style>
<g>
	<polygon class="st0" points="36.7,21.1 31.3,21.1 31.3,23.2 34.6,23.2 	"/>
	<polygon class="st0" points="34.6,27.4 31.3,27.4 31.3,29.5 36.7,29.5 	"/>
	<path class="st0" d="M67.9,4.4H26.8L6.4,24.6l19.7,20.1h41.8l20.3-20.1L67.9,4.4z M43.9,21.1h-1.2l-4.2,4.2l4.2,4.2h1.2v4.2H27.1
		V16.9h16.8V21.1z M67.6,23.2l-4.2,4.2h-2.1v2.1h6.3v4.2H50.8v-4.2h6.3v-2.1H55l-4.2-4.2v-6.3H55v4.6l1.7,1.7h4.9l1.7-1.7v-4.6h4.2
		V23.2z"/>
	<path class="st0" d="M69.8-0.2H24.9L0,24.5l24.2,24.8h45.6l24.9-24.7L69.8-0.2z M68.7,46.7H25.3L3.6,24.5L25.9,2.4h42.8l22.3,22.1
		L68.7,46.7z"/>
</g>
</svg>
