<?xml version="1.0" encoding="utf-8"?>
<!-- Generator: Adobe Illustrator 27.8.1, SVG Export Plug-In . SVG Version: 6.00 Build 0)  -->
<svg version="1.1" id="window" xmlns="http://www.w3.org/2000/svg" xmlns:xlink="http://www.w3.org/1999/xlink" x="0px" y="0px"
	 width="11px" height="31px" viewBox="0 0 11 31" style="enable-background:new 0 0 11 31;" xml:space="preserve">
<style type="text/css">
	.st0{fill-rule:evenodd;clip-rule:evenodd;fill:none;stroke:#010101;stroke-miterlimit:10;}
	.st1{fill-rule:evenodd;clip-rule:evenodd;fill:#010101;}
	.st2{fill-rule:evenodd;clip-rule:evenodd;fill:#F6EC6C;}
	.st3{fill:#FFFFFF;}
</style>
<rect id="content" x="3.8" y="0.5" class="st0" width="4" height="30"/>
<path id="left" class="st1" d="M5.2,1V0h-3l-2,2v11.8l1,1v6l-1,1V29l2,2h3v-1l-1-1V2L5.2,1z M2.2,11.8c-0.4,0-0.8-0.3-0.8-0.8
	c0-0.4,0.3-0.8,0.8-0.8C2.7,10.2,3,10.6,3,11C3,11.4,2.7,11.8,2.2,11.8z M2.2,8.8C1.8,8.8,1.5,8.4,1.5,8s0.3-0.8,0.8-0.8
	C2.7,7.2,3,7.6,3,8S2.7,8.8,2.2,8.8z M2.2,5.8C1.8,5.8,1.5,5.4,1.5,5s0.3-0.8,0.8-0.8C2.7,4.2,3,4.6,3,5S2.7,5.8,2.2,5.8z"/>
<path id="right" class="st1" d="M6,30v1h3l2-2V17.2l-1-1v-6l1-1V2L9,0H6v1l1,1v27L6,30z M9,19.2c0.4,0,0.8,0.3,0.8,0.8
	c0,0.4-0.3,0.8-0.8,0.8c-0.4,0-0.8-0.3-0.8-0.8C8.2,19.6,8.6,19.2,9,19.2z M9,22.2c0.4,0,0.8,0.3,0.8,0.8S9.4,23.8,9,23.8
	c-0.4,0-0.8-0.3-0.8-0.8S8.6,22.2,9,22.2z M9,25.2c0.4,0,0.8,0.3,0.8,0.8S9.4,26.8,9,26.8c-0.4,0-0.8-0.3-0.8-0.8S8.6,25.2,9,25.2z"
	/>
<polygon id="top" class="st2" points="0.2,0 1.2,1 7.2,1 8.2,0 "/>
<polygon id="bottom" class="st2" points="8.2,31 7.2,30 1.2,30 0.2,31 "/>
<circle class="st3" cx="2.2" cy="5" r="0.8"/>
<circle class="st3" cx="2.2" cy="8" r="0.8"/>
<circle class="st3" cx="2.2" cy="11" r="0.8"/>
<circle class="st3" cx="9" cy="20" r="0.8"/>
<circle class="st3" cx="9" cy="23" r="0.8"/>
<circle class="st3" cx="9" cy="26" r="0.8"/>
</svg>
